<svg xmlns="http://www.w3.org/2000/svg" viewBox="0 0 1545 322">
  <path fill="var(--text-color, '#201c1c')"
    d="M62.06 20.537C36.217 25.18 23.202 39.825 20.046 67.815c-3.272 29.006-3.229 154.996.062 184.094 2.949 26.071 14.262 41.711 35.344 48.861l8.048 2.73h233l7.965-2.306c19.76-5.72 31.43-16.816 37.016-35.194 3.191-10.499 5.013-139.748 2.53-179.5-2.357-37.736-15.473-57.726-42.682-65.054-8.184-2.204-227.424-3.037-239.269-.909M71 21.618C40.064 27.083 27.853 37.249 22.499 62c-2.1 9.708-3.405 151.525-1.633 177.5 2.571 37.694 14.576 55.38 41.342 60.908 11.526 2.381 225.838 2.409 237.584.032 26.146-5.292 39.1-22.189 42.301-55.178 1.682-17.338.203-166.602-1.747-176.262-4.211-20.859-14.2-34.978-29.726-42.018-13.182-5.977-18.335-6.34-76.12-5.362-61.914 1.048-111.232 1.125-140 .218-11.55-.364-22.125-.463-23.5-.22M278.5 48.76c-4.722.75-6.473 1.323-6.244 2.043.134.422-1.342 2.403-3.28 4.403-13.154 13.571-6.945 28.797 11.742 28.792 8.895-.002 12.828-2.019 16.029-8.222 4.339-8.408 1.11-16.677-8.781-22.487-3.006-1.767-5.916-3.58-6.466-4.029-.55-.45-1.9-.675-3-.5M144 49.966c-.825.467-3.414 1.359-5.754 1.983-2.815.75-4.809 2.05-5.893 3.842a139.397 139.397 0 0 1-3.496 5.419c-2.059 3.004-2.305 4.955-.955 7.554.497.955 2.316 4.756 4.044 8.448 4.997 10.675 11.296 13.294 21.149 8.794 3.068-1.402 9.761-12.346 10.56-17.267 1.069-6.589-4.948-14.456-13.927-18.208-4.144-1.732-3.736-1.691-5.728-.565m62.265.428c-1.779.608-3.131 1.331-3.004 1.606.127.275-.721 1.85-1.884 3.5-7.025 9.961-8.213 17.083-3.44 20.612 1.616 1.194 3.478 3.475 4.138 5.068 3.212 7.756 18.965 6.369 24.756-2.18 2.609-3.851 2.821-19.044.331-23.697-2.147-4.012-14.816-6.988-20.897-4.909M79.071 51.769c-.722.773-2.24 1.159-3.384.859-3.597-.94-11.741 4.284-13.824 8.867-3.053 6.721-2.116 15.034 2.354 20.874.923 1.207 4.319 2.478 9.595 3.591l8.166 1.724 4.868-2.781c8.293-4.736 10.444-15.533 5.159-25.894-3.127-6.129-10.248-10.115-12.934-7.24M146.5 52c.34.55 1.604.993 2.809.985 1.781-.013 1.91-.197.691-.985-1.97-1.273-4.287-1.273-3.5 0m58.372 1.75c-1.243 1.586-1.208 1.621.378.378 1.666-1.307 2.195-2.128 1.372-2.128-.207 0-.995.788-1.75 1.75m-1.007 3.53c-7.145 6.811-8.029 10.005-4.317 15.613 1.47 2.222 4.086 4.941 5.813 6.042 1.726 1.101 4.106 2.716 5.289 3.589 2.676 1.976 7.877.168 11.851-4.119 2.624-2.832 3.199-2.581 1.474.642-.564 1.053-2.251 2.581-3.75 3.394-1.499.813-2.197 1.497-1.552 1.519 2.776.095 7.181-4.996 7.128-8.237-.029-1.773.282-5.713.691-8.757 1.093-8.135-3.792-13.675-12.894-14.623-3.83-.399-4.482-.069-9.733 4.937m71.136-2.398C269.639 58.158 264 65.189 264 68.6c0 2.783 6.85 10.754 11.154 12.979 3.023 1.564 9.528-.222 16.596-4.556 5.677-3.482 4.149-13.923-3.039-20.761-4.598-4.374-8.212-4.738-13.71-1.38m-140.653.679c-3.754 3.754-2.269 3.979 3.232.49 4.451-2.823 4.606-3.051 2.07-3.051-1.608 0-3.8 1.059-5.302 2.561m3.152 2.3c-5.695 3.488-6.016 3.895-6.312 8.009-.203 2.807.211 4.915 1.173 5.982.818.906 2.473 4.288 3.678 7.515l2.192 5.867 4.274-.482C152.416 83.635 159 76.844 159 67.738c0-12.018-10.288-16.745-21.5-9.877m20.5 1.08c0 .518.399 1.188.887 1.489 1.615.998 2.249 7.629 1.07 11.199-.636 1.928-.937 3.724-.669 3.992.268.268 1.206-1.624 2.086-4.204 1.507-4.424 1.488-4.94-.332-9.054-1.829-4.135-3.042-5.5-3.042-3.422m-29.333 4.726c-.367.366-.653 1.379-.637 2.25.025 1.3.221 1.257 1.092-.242 1.077-1.852.765-3.228-.455-2.008m1067.968 8.406L1194 74.145v16.892c0 15.274-.173 16.985-1.809 17.861-2.658 1.422-18.878 4.095-24.876 4.099-10.47.006-16.315 4.878-16.315 13.6 0 5.418.213 5.907 4.166 9.557 5.004 4.619 5.149 4.627 16.253.874 11.19-3.783 21.156-5.245 22.74-3.336 1.58 1.903 2.865 16.622 2.691 30.808-.082 6.6.158 15.375.533 19.5.374 4.125.847 10.349 1.051 13.831.363 6.188 3.025 13.041 8.499 21.879 5.932 9.576 19.649 9.041 42.239-1.647 13.555-6.413 23.481-26.897 18.589-38.36l-2.048-4.798-5.056.298c-5.917.348-7.951 2.801-9.62 11.604-1.968 10.378-8.817 16.551-19.805 17.852-12.825 1.519-14.519-4.044-15.777-51.815-.772-29.306-1.484-26.944 8.665-28.714 2.959-.515 10.78-2.07 17.38-3.454 6.6-1.383 14.25-2.83 17-3.215 8.258-1.155 12.602-8.216 7.93-12.888-2.757-2.757-19.403-4.141-30.93-2.571-17.673 2.406-17.096 2.402-19.377.121-1.798-1.798-2.124-3.311-2.129-9.873-.013-18.131-8.064-27.489-17.359-20.177m-932.627 2.49c-.009 1.178 5.785 7.042 6.288 6.364.174-.235-1.168-2.002-2.982-3.927-1.814-1.925-3.302-3.022-3.306-2.437m1236.321 1.895c-4.139 1.8-5.152 3.884-7.499 15.427-2.22 10.92-13.105 43.818-15.186 45.9-4.229 4.228-49.171 5.592-56.644 1.719-5.876-3.045-9-5.781-9-7.882 0-3.658 7.857-14.967 19.498-28.061C1443.821 89.698 1445.047 87.047 1441 83c-5.049-5.049-13.466-1.388-25.571 11.124-16.731 17.292-24.429 30.49-24.429 41.88 0 12 3.134 16.231 16.543 22.331l6.957 3.165 27.202.5c16.182.297 27.575.905 28.123 1.5.562.611.407 4.305-.398 9.5-1.792 11.557-1.818 30.129-.048 34.364 4.078 9.76 15.707 10.085 19.656.551 1.116-2.695 1.042-4.216-.514-10.463-1.964-7.886-1.716-18.51.6-25.687 1.025-3.178 1.741-3.829 4.792-4.363 12.705-2.22 15.34-14.076 6.091-27.402-1.691-2.435-1.601-2.914 3.47-18.509 2.863-8.806 6.852-19.354 8.865-23.44 4.167-8.457 4.59-13.015 1.657-17.826-3.067-5.03-7.778-6.329-13.667-3.767m-938.394 3.415c-1.928 2.608-2.462 2.797-5.779 2.048-9.306-2.102-21.155-.657-29.156 3.555-26.717 14.066-47.939 52.967-43.111 79.024 5.917 31.941 53.849 57.725 91.111 49.011 10.981-2.568 19.775-6.768 20.539-9.81 2.667-10.626-3.679-12.148-36.234-8.69-10.639 1.13-11.533 1.078-18-1.051-23.431-7.711-39.363-23.278-39.29-38.392.107-22.326 25.003-54.095 42.99-54.859 4.732-.201 5.143.007 10.495 5.291 3.741 3.695 5.927 6.813 6.659 9.5 5.962 21.88 6.505 22.787 14.399 24.047 3.495.557 4.515.263 7.354-2.127l3.297-2.774-.484-10.573c-.57-12.43-1.405-15.497-6.573-24.122-2.126-3.548-4.854-9.453-6.064-13.122-3.185-9.663-8.079-12.465-12.153-6.956m-272.273-.255c-1.562.846-2.632 1.745-2.38 1.998.668.667 5.718-1.785 5.718-2.777 0-1.051.068-1.067-3.338.779m-86.647.064c.027 1.411 1.404 2.976 3.669 4.168 2.659 1.4 3.63 1.467 2.845.197-.94-1.521-6.531-5.267-6.514-4.365M151 83.669c-4.008 2.136-3.541 2.29 2.158.714.911-.253 1.91-1.117 2.218-1.921.309-.804.463-1.401.343-1.326-.121.074-2.244 1.215-4.719 2.533M75.5 114.04c-2.858 2.688-7.41 5.96-8.291 5.96-4.386 0-9.164 11.577-7.215 17.483 4.899 14.844 34.647 15.161 34.982.372.226-9.949.224-9.956-5.687-17.7-5.288-6.927-10.478-9.229-13.789-6.115m133 .316c-4.761 1.815-11.485 8.942-11.589 12.284-.511 16.464 2.752 22.078 13.799 23.738 4.719.709 10.151-3.703 16.401-13.324 6.385-9.827 1.845-19.758-9.889-21.634-2.302-.369-3.942-1.064-3.645-1.545.705-1.141-1.327-.948-5.077.481m65.94.528c-7.48 3.405-13.871 13.569-12.788 20.339 2.465 15.416 29.388 15.877 35.714.612l1.906-4.598-2.805-5.54c-1.543-3.047-3.816-6.081-5.052-6.742-1.236-.662-2.467-2.047-2.737-3.079-.362-1.385-1.409-1.876-4.003-1.876-1.931 0-4.111-.217-4.843-.482-.733-.265-3.159.35-5.392 1.366m-135.433 1.666c-6.938 3.094-10.307 7.745-11.341 15.654-.434 3.319-.215 5.104.744 6.063.747.747 2.315 3.233 3.484 5.525 2.889 5.664 6.519 7.371 14.893 7.003l6.713-.295 3.703-7.5c6.166-12.487 6.475-17.361 1.451-22.856-4.206-4.601-13.556-6.311-19.647-3.594M75 117c-.901.582-1.025.975-.309.985.655.008 1.469-.435 1.809-.985.767-1.242.421-1.242-1.5 0m3.75-.338c.688.278 1.813.278 2.5 0 .688-.277.125-.504-1.25-.504s-1.937.227-1.25.504m196.758 1.168c-6.504 2.176-7.943 5.014-7.895 15.569.046 10.107 1.469 11.601 11.047 11.601 10.928 0 16.34-4.449 16.34-13.432 0-4.667-.36-5.503-3.75-8.716-7.705-7.302-8.33-7.501-15.742-5.022m-70.524 1.027c-8.585 4.574-7.927 14.188 1.713 25.052 4.859 5.475 7.177 5.196 13.884-1.673 7.112-7.284 9.408-14.951 5.954-19.883-3.632-5.185-14.938-7.02-21.551-3.496m-129.93.489c-5.262 1.115-5.536 1.34-8.163 6.683-5.821 11.844-4.409 16.602 5.807 19.572 8.808 2.56 15.617.558 18.759-5.517 3.026-5.853-3.899-22.293-9.263-21.988-.932.053-4.145.616-7.14 1.25m-10.271 4.404c-2.33 2.671-3.783 5.879-3.783 8.351 0 3.068.897 1.904 3.532-4.578 2.467-6.07 2.485-6.333.251-3.773m199.743 3.2c-.839 1.623-1.526 4.345-1.526 6.05 0 2.502 2.364 8.997 3.276 9.001.123 0 .224-4.049.224-8.998 0-10.216.069-10.004-1.974-6.053m-172.885.55c1.171 5.348 2.227 7.452 2.26 4.5.016-1.375-.635-3.625-1.445-5l-1.472-2.5.657 3m1008.479-.341c-12.851 2.06-33.945 19.547-40.181 33.311-12.634 27.882 4.191 51.291 43.061 59.914 36.303 8.053 39.846 8.48 45.638 5.499 5.79-2.979 8.859-6.841 7.985-10.046-1.525-5.592-2.358-5.918-29.329-11.465-31.869-6.556-35.662-7.914-44.069-15.778l-6.463-6.046.615-5.885c.894-8.552 11.965-22.426 20.841-26.117 4.716-1.961 14.016-1.994 17.752-.062 2.593 1.341 8.03 10.427 8.03 13.419 0 4.165 11.655 3.616 15.072-.71 2.611-3.306 2.002-14.167-1.139-20.324-2.072-4.063-11.622-12.42-16.433-14.381-4.153-1.693-14.931-2.363-21.38-1.329m-108.502.891c-23.751 5.955-49.863 41.275-49.884 67.473-.02 25.975 27.333 47.703 60.266 47.871 12.009.061 41.572-6.17 48-10.118 7.787-4.782 10.16-10.747 6.407-16.105-2.213-3.159-11.571-2.18-28.907 3.025-26.003 7.808-41.6 5.485-55.681-8.294-10.791-10.559-13.327-19.694-8.189-29.503 3.688-7.043 4.083-7.203 8.707-3.529 15.88 12.62 42.604 11.36 56.25-2.652 14.862-15.262 10.312-37.728-9.411-46.468-5.359-2.375-21.014-3.34-27.558-1.7M661 129.95c-7.108 1.323-12.598 3.865-25.975 12.026-14.151 8.633-15.407 10.408-13.202 18.652.647 2.42 1.177 9.599 1.177 15.952 0 16.952 5.498 28.596 16 33.884 32.479 16.355 87.864-3.203 92.654-32.72 4.093-25.224-38.203-53.835-70.654-47.794m135.28.978c-5.944.708-9.303 3.384-17.032 13.572-4.876 6.428-15.237 17.5-16.376 17.5-.379 0-.843-4.714-1.031-10.475-.402-12.362-1.63-14.409-9.153-15.257-7.462-.841-10.113 2.605-9.267 12.048.557 6.213-.277 19.262-3.014 47.184l-.588 6 4.956 4.829c7.275 7.091 9.366 6.559 15.044-3.829 10.601-19.397 31.316-45.5 36.108-45.5 4.569 0 9.782 11.067 11.541 24.5 1.547 11.822 4.461 21.271 8.591 27.859 4.492 7.164 4.923 7.382 10.198 5.178 5.375-2.246 6.112-6.484 2.841-16.319-1.732-5.204-3.037-12.33-6.026-32.904-1.473-10.141-4.582-18.928-8.932-25.243-5.963-8.658-8.977-10.201-17.86-9.143m99.992-.012c-5.822.708-10.677 4.545-16.553 13.084-3.375 4.905-15.591 18-16.792 18-.41 0-.898-4.714-1.086-10.475-.402-12.362-1.63-14.409-9.153-15.257-7.476-.842-10.122 2.608-9.238 12.048.67 7.167-.377 24.429-2.607 42.98l-1.178 9.795 4.917 4.997c7.73 7.855 9.13 7.257 17.636-7.521C873.513 178.941 891.319 157 895.951 157c5.13 0 9.141 9.354 12.433 29 .876 5.225 2.035 11.026 2.575 12.892 1.365 4.711 8.998 17.108 10.534 17.108 3.541 0 8.501-3.145 9.077-5.756.333-1.509.732-3.194.888-3.744.155-.55-.351-2.558-1.126-4.462-2.14-5.265-5.089-19.742-6.344-31.149-1.534-13.943-4.951-24.26-10.555-31.872-3.744-5.086-9.879-9.76-11.651-8.876-.155.077-2.635.426-5.51.775M198.478 137c1.881 7.17 3.656 9.41 9.022 11.386 1.531.564 1.27-.04-1.113-2.575-1.712-1.821-4.339-5.111-5.839-7.311-2.087-3.062-2.572-3.414-2.07-1.5M133 142.105c0 1.998 4.834 6.474 8 7.407 1.375.405 2.267.568 1.981.362-.285-.206-2.647-2.38-5.25-4.832-2.947-2.778-4.731-3.885-4.731-2.937m859.41 6.884c-5.842 2.954-17.41 12.319-17.41 14.094 0 .504 1.068.917 2.374.917s4.261.666 6.566 1.479c8.603 3.035 16.191 3.065 22.691.089 13.601-6.226 14.15-12.804 1.47-17.621-6.838-2.599-8.742-2.473-15.691 1.042m-840.969-.521c-1.067.808-1.434 1.483-.813 1.5.62.018 1.687-.643 2.372-1.468 1.581-1.905.935-1.918-1.559-.032m516.761 1.043c-7.726 3.357-22.581 17.534-24.087 22.989-6.18 22.389 15.434 33.554 45.175 23.336 15.855-5.447 25.938-17.514 22.493-26.917-4.396-11.996-32.171-24.365-43.581-19.408m-523.575 29.283c-.325.526 1.314 1.279 3.641 1.673 3.887.658 4.038.791 1.853 1.64-1.308.508-2.883.544-3.5.08s-3.279-.649-5.916-.411c-5.698.514-7.051 2.119-9.316 11.045l-1.538 6.06 4.324 8.309c4.281 8.225 4.373 8.319 9.006 9.156 13.751 2.483 25.227-14.372 18.61-27.334-3.1-6.074-15.254-13.309-17.164-10.218m65.373.798-2.5 1.522 3-.553c2.413-.445 2.022-.037-2 2.085-7.499 3.958-11.5 10.339-11.5 18.342 0 4.004 13.837 15.012 18.87 15.012 7.189 0 15.416-10.342 15.416-19.38 0-12.51-12.405-22.433-21.286-17.028m-129.567.299c.303.49-2.401 2.145-6.008 3.678-7.545 3.207-8.753 4.908-10.465 14.74-2.561 14.706 8.083 22 23.294 15.961 6.97-2.767 9.054-6.501 8.502-15.235-.574-9.1-1.631-11.417-7.428-16.285-3.928-3.299-9.39-5.277-7.895-2.859m200.001.002c.428.693-.223 1.107-1.74 1.107-3.233 0-7.331 3.359-10.83 8.875-3.613 5.698-3.583 8.511.154 14.025 1.64 2.421 2.982 5.201 2.982 6.178 0 6.282 12.15 7.982 19.096 2.672 11.446-8.75 11.246-23.524-.414-30.603-3.858-2.341-10.268-3.904-9.248-2.254M136 185c-3.033 3.033-2.392 4.692.75 1.939 1.512-1.325 3.178-2.753 3.7-3.174.529-.426.196-.765-.75-.765-.935 0-2.6.9-3.7 2m140.464-.599c-6.579 2.866-8.177 13.678-3.562 24.11 2.342 5.295 3.583 5.943 9.637 5.035 13.048-1.956 18.361-19.583 8.246-27.357-4.581-3.521-9.059-4.08-14.321-1.788M72.75 188.25c-12.172 11.426-9.128 24.767 5.732 25.122 11.69.278 19.381-15.734 12.319-25.652-1.132-1.589-2.626-2.617-3.382-2.327-.745.286-1.621.089-1.946-.437-1.639-2.652-8.197-.954-12.723 3.294m69.469-3.005c-10.026 3.246-11.768 13.036-4.154 23.343l4.166 5.639 5.134-.675c9.623-1.266 13.385-5.522 13.559-15.342.079-4.433-3.035-12.001-5.219-12.684-3.42-1.069-10.592-1.219-13.486-.281m-73.03 2.794C67.985 189.16 67 190.364 67 190.713c0 .35 1.125-.421 2.5-1.713 2.345-2.203 2.926-3 2.189-3-.172 0-1.297.918-2.5 2.039m197.818 6.441c-.911 2.761-.868 3.88.208 5.416 1.213 1.733 1.356 1.366 1.356-3.479 0-6.389-.067-6.473-1.564-1.937m-173.871 9.13c-.075.611-1.247 2.749-2.606 4.75-2.802 4.129-2.008 4.842 1.378 1.238 1.46-1.554 2.099-3.232 1.811-4.75-.246-1.291-.508-1.848-.583-1.238m120.001 31.284c-1.083.686-1.099.952-.078 1.292.707.236-.255 1.033-2.137 1.771-8.011 3.143-9.7 4.304-11.859 8.145-2.655 4.723-3.858 14.544-2.168 17.701 3.886 7.261 15.119 9.251 25.309 4.482l6.514-3.048.661-6.869c1.046-10.888-2.395-18.295-10.397-22.377-4.492-2.292-4.081-2.215-5.845-1.097m65.01 1.64c-1.845.801-3.649 1.274-4.011 1.05-1.148-.71-8.569 4.902-9.863 7.459-2.731 5.397-.964 15.994 3.394 20.352 4.264 4.264 14.956 7.078 19.568 5.151 8.568-3.579 13.255-16.497 9.135-25.178-3.906-8.231-11.327-11.828-18.223-8.834M143 236.885c0 .409-1.53 1.474-3.401 2.366-7.599 3.624-11.652 13.361-9.625 23.124 1.827 8.802 10.729 13.538 19.296 10.266 6.517-2.489 15.188-10.862 14.316-13.825-.375-1.274-1.038-4.704-1.474-7.622-.664-4.448-1.397-5.805-4.533-8.389-2.571-2.119-3.587-3.665-3.253-4.944.528-2.02-1.722-2.53-4.21-.954-.761.482-2.674.507-4.25.055s-2.866-.487-2.866-.077m-70.314 1.209c-3.757 1.024-5.489 2.559-8.857 7.852-4.056 6.374-3.83 10.922.861 17.312 9.608 13.089 18.818 12.888 28.547-.624 3.236-4.494 2.634-13.246-1.15-16.702-1.566-1.43-3.156-3.575-3.534-4.766-.686-2.16-1.522-2.55-4.767-2.224-.943.094-3.193-.23-5-.721s-4.552-.548-6.1-.127m140.943.697c-.269.435 1.167.606 3.191.38 2.024-.226 3.382-.097 3.018.287-.364.384-1.714.829-3 .988-13.854 1.716-14.272 1.999-16.871 11.407-1.972 7.138-1.978 7.443-.218 10.456 2.871 4.918 10.338 8.281 15.169 6.834 5.033-1.508 12.413-8.773 11.774-11.59a2607.06 2607.06 0 0 1-2.081-9.376c-.888-4.028-2.256-7.965-3.041-8.75-1.516-1.516-7.12-1.965-7.941-.636m-145.625 3.705c-3.15 3.353-2.021 4.176 1.391 1.014 2.692-2.495 5.076-3.349 4.438-1.59-.183.506-2.583 2.419-5.333 4.25-5.766 3.84-6.413 5.874-3.933 12.365 3.015 7.896 12.146 13.96 18.15 12.055 1.04-.33 3.769-4.085 6.065-8.345 2.295-4.26 4.183-7.16 4.196-6.445.012.714-.686 2.669-1.552 4.343-.865 1.673-1.348 3.268-1.073 3.543.621.622 3.651-5.113 3.637-6.886-.005-.715-1.076-3.59-2.379-6.39-2.256-4.844-2.716-5.217-9.548-7.75-8.896-3.297-11.092-3.323-14.059-.164M139.5 241c-.782 1.266.542 1.266 2.5 0 1.293-.835 1.266-.971-.191-.985-.93-.008-1.969.435-2.309.985m2.543 1.469c-8.979 3.776-10.043 5.2-10.043 13.44 0 9.708 2.865 13.166 11.499 13.882 11.803.979 20.538-10.113 14.676-18.637-1.004-1.46-2.416-4.134-3.138-5.942-2.276-5.706-4.721-6.222-12.994-2.743M158.097 248c1.731 3.394 2.395 4.038 2.698 2.621.238-1.115-.696-2.945-2.296-4.5l-2.698-2.621 2.296 4.5m68.476 1.5c.335 2.2 1.011 4.675 1.501 5.5 1.092 1.837.031-4.561-1.243-7.5-.576-1.329-.663-.657-.258 2m-66.203 11.011c-.994 3.233-.953 3.501.336 2.212.807-.807 1.315-2.462 1.13-3.679-.272-1.792-.551-1.514-1.466 1.467m65.834 2.534c-.773 1.238-.839 1.955-.181 1.955.572 0 1.306-.694 1.632-1.543.9-2.346-.072-2.621-1.451-.412m64.668 2.705c-1.243 1.586-1.208 1.621.378.378 1.666-1.307 2.195-2.128 1.372-2.128-.207 0-.995.788-1.75 1.75"
    fill-rule="evenodd" />
</svg>